<svg xmlns="http://www.w3.org/2000/svg" xmlns:xlink="http://www.w3.org/1999/xlink" width="0" height="0" style="display:none;"><symbol viewBox="0 0 24 24" id="arrow-up-s-line"><path d="M11.9999 10.8284L7.0502 15.7782L5.63599 14.364L11.9999 8L18.3639 14.364L16.9497 15.7782L11.9999 10.8284Z"></path></symbol><symbol viewBox="0 0 24 24" id="arrow-right-s-line"><path d="M13.1717 12.0007L8.22192 7.05093L9.63614 5.63672L16.0001 12.0007L9.63614 18.3646L8.22192 16.9504L13.1717 12.0007Z"></path></symbol><symbol viewBox="0 0 24 24" id="arrow-down-s-line"><path d="M11.9999 13.1714L16.9497 8.22168L18.3639 9.63589L11.9999 15.9999L5.63599 9.63589L7.0502 8.22168L11.9999 13.1714Z"></path></symbol><symbol viewBox="0 0 24 24" id="arrow-left-s-line"><path d="M10.8284 12.0007L15.7782 16.9504L14.364 18.3646L8 12.0007L14.364 5.63672L15.7782 7.05093L10.8284 12.0007Z"></path></symbol><symbol viewBox="0 0 24 24" id="code-s-slash-line"><path d="M24 12L18.3431 17.6569L16.9289 16.2426L21.1716 12L16.9289 7.75736L18.3431 6.34315L24 12ZM2.82843 12L7.07107 16.2426L5.65685 17.6569L0 12L5.65685 6.34315L7.07107 7.75736L2.82843 12ZM9.78845 21H7.66009L14.2116 3H16.3399L9.78845 21Z"></path></symbol><symbol viewBox="0 0 24 24" id="settings-5-line"><path d="M2.21232 14.0601C1.91928 12.6755 1.93115 11.2743 2.21316 9.94038C3.32308 10.0711 4.29187 9.7035 4.60865 8.93871C4.92544 8.17392 4.50032 7.22896 3.62307 6.53655C4.3669 5.3939 5.34931 4.39471 6.53554 3.62289C7.228 4.50059 8.17324 4.92601 8.93822 4.60914C9.7032 4.29227 10.0708 3.32308 9.93979 2.21281C11.3243 1.91977 12.7255 1.93164 14.0595 2.21364C13.9288 3.32356 14.2964 4.29235 15.0612 4.60914C15.8259 4.92593 16.7709 4.5008 17.4633 3.62356C18.606 4.36739 19.6052 5.3498 20.377 6.53602C19.4993 7.22849 19.0739 8.17373 19.3907 8.93871C19.7076 9.70369 20.6768 10.0713 21.7871 9.94028C22.0801 11.3248 22.0682 12.726 21.7862 14.06C20.6763 13.9293 19.7075 14.2969 19.3907 15.0616C19.0739 15.8264 19.4991 16.7714 20.3763 17.4638C19.6325 18.6064 18.6501 19.6056 17.4638 20.3775C16.7714 19.4998 15.8261 19.0743 15.0612 19.3912C14.2962 19.7081 13.9286 20.6773 14.0596 21.7875C12.675 22.0806 11.2738 22.0687 9.93989 21.7867C10.0706 20.6768 9.70301 19.708 8.93822 19.3912C8.17343 19.0744 7.22848 19.4995 6.53606 20.3768C5.39341 19.633 4.39422 18.6506 3.62241 17.4643C4.5001 16.7719 4.92552 15.8266 4.60865 15.0616C4.29179 14.2967 3.32259 13.9291 2.21232 14.0601ZM3.99975 12.2104C5.09956 12.5148 6.00718 13.2117 6.45641 14.2963C6.90564 15.3808 6.75667 16.5154 6.19421 17.5083C6.29077 17.61 6.38998 17.7092 6.49173 17.8056C7.4846 17.2432 8.61912 17.0943 9.70359 17.5435C10.7881 17.9927 11.485 18.9002 11.7894 19.9999C11.9295 20.0037 12.0697 20.0038 12.2099 20.0001C12.5143 18.9003 13.2112 17.9927 14.2958 17.5435C15.3803 17.0942 16.5149 17.2432 17.5078 17.8057C17.6096 17.7091 17.7087 17.6099 17.8051 17.5081C17.2427 16.5153 17.0938 15.3807 17.543 14.2963C17.9922 13.2118 18.8997 12.5149 19.9994 12.2105C20.0032 12.0704 20.0033 11.9301 19.9996 11.7899C18.8998 11.4856 17.9922 10.7886 17.543 9.70407C17.0937 8.61953 17.2427 7.48494 17.8052 6.49204C17.7086 6.39031 17.6094 6.2912 17.5076 6.19479C16.5148 6.75717 15.3803 6.9061 14.2958 6.4569C13.2113 6.0077 12.5144 5.10016 12.21 4.00044C12.0699 3.99666 11.9297 3.99659 11.7894 4.00024C11.4851 5.10005 10.7881 6.00767 9.70359 6.4569C8.61904 6.90613 7.48446 6.75715 6.49155 6.1947C6.38982 6.29126 6.29071 6.39047 6.19431 6.49222C6.75668 7.48509 6.90561 8.61961 6.45641 9.70407C6.00721 10.7885 5.09967 11.4855 3.99995 11.7899C3.99617 11.93 3.9961 12.0702 3.99975 12.2104ZM11.9997 15.0002C10.3428 15.0002 8.99969 13.657 8.99969 12.0002C8.99969 10.3433 10.3428 9.00018 11.9997 9.00018C13.6565 9.00018 14.9997 10.3433 14.9997 12.0002C14.9997 13.657 13.6565 15.0002 11.9997 15.0002ZM11.9997 13.0002C12.552 13.0002 12.9997 12.5525 12.9997 12.0002C12.9997 11.4479 12.552 11.0002 11.9997 11.0002C11.4474 11.0002 10.9997 11.4479 10.9997 12.0002C10.9997 12.5525 11.4474 13.0002 11.9997 13.0002Z"></path></symbol><symbol viewBox="0 0 24 24" id="computer-line"><path d="M4 16H20V5H4V16ZM13 18V20H17V22H7V20H11V18H2.9918C2.44405 18 2 17.5511 2 16.9925V4.00748C2 3.45107 2.45531 3 2.9918 3H21.0082C21.556 3 22 3.44892 22 4.00748V16.9925C22 17.5489 21.5447 18 21.0082 18H13Z"></path></symbol><symbol viewBox="0 0 24 24" id="refresh-line"><path d="M5.46257 4.43262C7.21556 2.91688 9.5007 2 12 2C17.5228 2 22 6.47715 22 12C22 14.1361 21.3302 16.1158 20.1892 17.7406L17 12H20C20 7.58172 16.4183 4 12 4C9.84982 4 7.89777 4.84827 6.46023 6.22842L5.46257 4.43262ZM18.5374 19.5674C16.7844 21.0831 14.4993 22 12 22C6.47715 22 2 17.5228 2 12C2 9.86386 2.66979 7.88416 3.8108 6.25944L7 12H4C4 16.4183 7.58172 20 12 20C14.1502 20 16.1022 19.1517 17.5398 17.7716L18.5374 19.5674Z"></path></symbol><symbol viewBox="0 0 24 24" id="send-plane-line"><path d="M21.7267 2.95694L16.2734 22.0432C16.1225 22.5716 15.7979 22.5956 15.5563 22.1126L11 13L1.9229 9.36919C1.41322 9.16532 1.41953 8.86022 1.95695 8.68108L21.0432 2.31901C21.5716 2.14285 21.8747 2.43866 21.7267 2.95694ZM19.0353 5.09647L6.81221 9.17085L12.4488 11.4255L15.4895 17.5068L19.0353 5.09647Z"></path></symbol><symbol viewBox="0 0 24 24" id="rocket-line"><path d="M4.99958 12.9999C4.99958 7.91198 7.90222 3.5636 11.9996 1.81799C16.0969 3.5636 18.9996 7.91198 18.9996 12.9999C18.9996 13.8229 18.9236 14.6264 18.779 15.4027L20.7194 17.2353C20.8845 17.3913 20.9238 17.6389 20.815 17.8383L18.3196 22.4133C18.1873 22.6557 17.8836 22.7451 17.6412 22.6128C17.5993 22.59 17.5608 22.5612 17.5271 22.5274L15.2925 20.2928C15.1049 20.1053 14.8506 19.9999 14.5854 19.9999H9.41379C9.14857 19.9999 8.89422 20.1053 8.70668 20.2928L6.47209 22.5274C6.27683 22.7227 5.96025 22.7227 5.76498 22.5274C5.73122 22.4937 5.70246 22.4552 5.67959 22.4133L3.18412 17.8383C3.07537 17.6389 3.11464 17.3913 3.27975 17.2353L5.22014 15.4027C5.07551 14.6264 4.99958 13.8229 4.99958 12.9999ZM6.47542 19.6957L7.29247 18.8786C7.85508 18.316 8.61814 17.9999 9.41379 17.9999H14.5854C15.381 17.9999 16.1441 18.316 16.7067 18.8786L17.5237 19.6957L18.5056 17.8955L17.4058 16.8568C16.9117 16.3901 16.6884 15.7045 16.8128 15.0364C16.9366 14.3722 16.9996 13.6911 16.9996 12.9999C16.9996 9.13037 15.0045 5.69965 11.9996 4.04033C8.99462 5.69965 6.99958 9.13037 6.99958 12.9999C6.99958 13.6911 7.06255 14.3722 7.18631 15.0364C7.31078 15.7045 7.08746 16.3901 6.59338 16.8568L5.49353 17.8955L6.47542 19.6957ZM11.9996 12.9999C10.895 12.9999 9.99958 12.1045 9.99958 10.9999C9.99958 9.89537 10.895 8.99994 11.9996 8.99994C13.1041 8.99994 13.9996 9.89537 13.9996 10.9999C13.9996 12.1045 13.1041 12.9999 11.9996 12.9999Z"></path></symbol><symbol viewBox="0 0 24 24" id="window-line"><path d="M21 3C21.5523 3 22 3.44772 22 4V20C22 20.5523 21.5523 21 21 21H3C2.44772 21 2 20.5523 2 20V4C2 3.44772 2.44772 3 3 3H21ZM20 11H4V19H20V11ZM20 5H4V9H20V5ZM11 6V8H9V6H11ZM7 6V8H5V6H7Z"></path></symbol><symbol viewBox="0 0 24 24" id="fullscreen-line"><path d="M8 3V5H4V9H2V3H8ZM2 21V15H4V19H8V21H2ZM22 21H16V19H20V15H22V21ZM22 9H20V5H16V3H22V9Z"></path></symbol></svg>